<svg width="25" height="27" viewBox="0 0 25 27" fill="none" xmlns="http://www.w3.org/2000/svg">
<path d="M19.6429 12.7868V14.625C19.6429 15.0041 19.3415 15.3143 18.9732 15.3143H14.0625V20.3695C14.0625 20.7486 13.7612 21.0588 13.3929 21.0588H11.6071C11.2388 21.0588 10.9375 20.7486 10.9375 20.3695V15.3143H6.02679C5.65848 15.3143 5.35714 15.0041 5.35714 14.625V12.7868C5.35714 12.4076 5.65848 12.0974 6.02679 12.0974H10.9375V7.04227C10.9375 6.66313 11.2388 6.35293 11.6071 6.35293H13.3929C13.7612 6.35293 14.0625 6.66313 14.0625 7.04227V12.0974H18.9732C19.3415 12.0974 19.6429 12.4076 19.6429 12.7868ZM25 3.59558V23.8162C25 25.3385 23.8002 26.5735 22.3214 26.5735H2.67857C1.19978 26.5735 0 25.3385 0 23.8162V3.59558C0 2.07329 1.19978 0.838226 2.67857 0.838226H22.3214C23.8002 0.838226 25 2.07329 25 3.59558ZM22.3214 23.4715V3.94025C22.3214 3.75068 22.1708 3.59558 21.9866 3.59558H3.01339C2.82924 3.59558 2.67857 3.75068 2.67857 3.94025V23.4715C2.67857 23.6611 2.82924 23.8162 3.01339 23.8162H21.9866C22.1708 23.8162 22.3214 23.6611 22.3214 23.4715Z" fill="#2FB5F2"/>
</svg>
