<svg width="38" height="38" viewBox="0 0 38 38" fill="none" xmlns="http://www.w3.org/2000/svg">
<path d="M19 0.59375C8.83448 0.59375 0.59375 8.83448 0.59375 19C0.59375 29.1655 8.83448 37.4062 19 37.4062C29.1655 37.4062 37.4062 29.1655 37.4062 19C37.4062 8.83448 29.1655 0.59375 19 0.59375ZM19 4.15625C27.2035 4.15625 33.8438 10.7952 33.8438 19C33.8438 27.2035 27.2048 33.8438 19 33.8438C10.7965 33.8438 4.15625 27.2048 4.15625 19C4.15625 10.7965 10.7952 4.15625 19 4.15625ZM29.4058 13.8245L27.7332 12.1384C27.3868 11.7892 26.8229 11.7869 26.4737 12.1334L15.9827 22.54L11.545 18.0663C11.1986 17.7171 10.6347 17.7148 10.2855 18.0612L8.59936 19.7338C8.25016 20.0802 8.24786 20.6441 8.59431 20.9934L15.332 27.7856C15.6783 28.1348 16.2423 28.1371 16.5915 27.7906L29.4008 15.0841C29.7499 14.7376 29.7521 14.1737 29.4058 13.8245Z" fill="#2FB5F2"/>
</svg>
