<svg width="14" height="16" viewBox="0 0 14 16" fill="none" xmlns="http://www.w3.org/2000/svg">
<path d="M13.1176 0.96875H0.882353C0.647059 0.96875 0.475936 1.15822 0.497327 1.3898L1.09626 13.5793C1.16043 14.9266 2.29412 16.0003 3.6631 16.0003H10.3155C11.6845 16.0003 12.8182 14.9477 12.8824 13.5793L13.4813 1.3898C13.5241 1.17928 13.3315 0.96875 13.1176 0.96875ZM5.6738 12.7372C5.6738 13.1161 5.37433 13.4109 4.9893 13.4109C4.60428 13.4109 4.30481 13.1161 4.30481 12.7372V4.25296C4.30481 3.87401 4.60428 3.57928 4.9893 3.57928C5.37433 3.57928 5.6738 3.87401 5.6738 4.25296V12.7372ZM9.69519 12.7372C9.69519 13.1161 9.39572 13.4109 9.0107 13.4109C8.62567 13.4109 8.3262 13.1161 8.3262 12.7372V4.25296C8.3262 3.87401 8.62567 3.57928 9.0107 3.57928C9.39572 3.57928 9.69519 3.87401 9.69519 4.25296V12.7372Z" fill="#7D90B2"/>
</svg>
